<svg width="16" height="12" viewBox="0 0 16 12" fill="none" xmlns="http://www.w3.org/2000/svg">
<path d="M6.95859 1.61284H8.99068C9.93103 1.61369 10.7475 2.26075 10.9632 3.17604C10.9812 3.25234 11.0493 3.30628 11.1277 3.30646H14.2417C14.2866 3.30663 14.3297 3.2889 14.3615 3.2572C14.3934 3.2255 14.4112 3.18244 14.4112 3.13753V1.4433C14.4112 1.08395 14.2685 0.739326 14.0143 0.485286C13.7601 0.231246 13.4155 0.088611 13.0561 0.0887758H2.89317C2.53382 0.088611 2.18913 0.231246 1.93497 0.485286C1.68082 0.739326 1.53802 1.08395 1.53802 1.4433V3.13753C1.53802 3.18244 1.55591 3.2255 1.58772 3.2572C1.61954 3.2889 1.66266 3.30663 1.70757 3.30646H4.82154C4.90012 3.30674 4.96843 3.2526 4.98612 3.17604C5.20177 2.26075 6.01824 1.61369 6.95859 1.61284Z" fill="black"/>
<path d="M1.19954 4.32312C1.01979 4.32296 0.847352 4.39429 0.720247 4.52139C0.593142 4.6485 0.521808 4.82094 0.521973 5.00069V8.55747C0.521972 8.8795 0.748624 9.15703 1.06415 9.22138C1.14288 9.23757 1.19943 9.30682 1.19954 9.3872V10.7591C1.19954 11.1333 1.5029 11.4367 1.87711 11.4367C2.25133 11.4367 2.55468 11.1333 2.55468 10.7591V9.40459C2.55452 9.35968 2.57224 9.31655 2.60394 9.28474C2.63564 9.25292 2.6787 9.23504 2.72361 9.23504H13.2256C13.2706 9.23504 13.3136 9.25292 13.3453 9.28474C13.377 9.31655 13.3947 9.35968 13.3946 9.40459V10.7591C13.3946 11.1333 13.6979 11.4367 14.0721 11.4367C14.4464 11.4367 14.7497 11.1333 14.7497 10.7591V9.3872C14.7498 9.30682 14.8064 9.23757 14.8851 9.22138C15.2006 9.15703 15.4273 8.8795 15.4273 8.55747V5.00069C15.4275 4.82094 15.3561 4.6485 15.229 4.52139C15.1019 4.39429 14.9295 4.32296 14.7497 4.32312H1.19954Z" fill="black"/>
</svg>
